<svg width="30" height="30" viewBox="0 0 30 30" fill="none" xmlns="http://www.w3.org/2000/svg">
<mask id="mask0_61_7" style="mask-type:alpha" maskUnits="userSpaceOnUse" x="0" y="0" width="30" height="30">
<rect width="30" height="30" fill="#D9D9D9"/>
</mask>
<g mask="url(#mask0_61_7)">
<path d="M17.4062 13.8125L12.0938 8.5L13.875 6.75L17.4062 10.2813L24.5 3.21875L26.25 4.96875L17.4062 13.8125ZM10 23.125L18.6875 25.5L26.125 23.1875C26.0208 23 25.8698 22.8385 25.6719 22.7031C25.474 22.5677 25.25 22.5 25 22.5H18.6875C18.125 22.5 17.6771 22.4792 17.3438 22.4375C17.0104 22.3958 16.6667 22.3125 16.3125 22.1875L13.4062 21.2188L14.0938 18.7813L16.625 19.625C16.9792 19.7292 17.3958 19.8125 17.875 19.875C18.3542 19.9375 19.0625 19.9792 20 20C20 19.7708 19.9323 19.5521 19.7969 19.3438C19.6615 19.1354 19.5 19 19.3125 18.9375L12 16.25H10V23.125ZM2.5 27.5V13.75H12C12.1458 13.75 12.2917 13.7656 12.4375 13.7969C12.5833 13.8281 12.7188 13.8646 12.8438 13.9063L20.1875 16.625C20.875 16.875 21.4323 17.3125 21.8594 17.9375C22.2865 18.5625 22.5 19.25 22.5 20H25C26.0417 20 26.9271 20.3438 27.6562 21.0313C28.3854 21.7188 28.75 22.625 28.75 23.75V25L18.75 28.125L10 25.6875V27.5H2.5ZM5 25H7.5V16.25H5V25Z" fill="white"/>
</g>
</svg>
