<svg width="48" height="48" viewBox="0 0 48 48" fill="none" xmlns="http://www.w3.org/2000/svg">
<mask id="mask0_3_19" style="mask-type:alpha" maskUnits="userSpaceOnUse" x="0" y="0" width="48" height="48">
<rect width="48" height="48" fill="#D9D9D9"/>
</mask>
<g mask="url(#mask0_3_19)">
<path d="M10 42C8.9 42 7.95833 41.6084 7.175 40.825C6.39167 40.0417 6 39.1 6 38V10C6 8.90003 6.39167 7.95836 7.175 7.17503C7.95833 6.3917 8.9 6.00003 10 6.00003H18.4C18.8333 4.80003 19.5583 3.83336 20.575 3.10003C21.5917 2.3667 22.7333 2.00003 24 2.00003C25.2667 2.00003 26.4083 2.3667 27.425 3.10003C28.4417 3.83336 29.1667 4.80003 29.6 6.00003H38C39.1 6.00003 40.0417 6.3917 40.825 7.17503C41.6083 7.95836 42 8.90003 42 10V23.4C41.3667 23.1 40.7167 22.8417 40.05 22.625C39.3833 22.4084 38.7 22.25 38 22.15V10H10V38H22.1C22.2 38.7334 22.3583 39.4334 22.575 40.1C22.7917 40.7667 23.05 41.4 23.35 42H10ZM10 38V10V22.15V22V38ZM14 34H22.15C22.25 33.3 22.4083 32.6167 22.625 31.95C22.8417 31.2834 23.0833 30.6334 23.35 30H14V34ZM14 26H26.2C27.2667 25 28.4583 24.1667 29.775 23.5C31.0917 22.8334 32.5 22.3834 34 22.15V22H14V26ZM14 18H34V14H14V18ZM24 8.50003C24.4333 8.50003 24.7917 8.35836 25.075 8.07503C25.3583 7.7917 25.5 7.43336 25.5 7.00003C25.5 6.5667 25.3583 6.20836 25.075 5.92503C24.7917 5.6417 24.4333 5.50003 24 5.50003C23.5667 5.50003 23.2083 5.6417 22.925 5.92503C22.6417 6.20836 22.5 6.5667 22.5 7.00003C22.5 7.43336 22.6417 7.7917 22.925 8.07503C23.2083 8.35836 23.5667 8.50003 24 8.50003ZM36 46C33.2333 46 30.875 45.025 28.925 43.075C26.975 41.125 26 38.7667 26 36C26 33.2334 26.975 30.875 28.925 28.925C30.875 26.975 33.2333 26 36 26C38.7667 26 41.125 26.975 43.075 28.925C45.025 30.875 46 33.2334 46 36C46 38.7667 45.025 41.125 43.075 43.075C41.125 45.025 38.7667 46 36 46ZM35 42H37V37H42V35H37V30H35V35H30V37H35V42Z" fill="#1C1B1F"/>
</g>
</svg>
