<svg width="48" height="48" viewBox="0 0 48 48" fill="none" xmlns="http://www.w3.org/2000/svg">
<mask id="mask0_3_13" style="mask-type:alpha" maskUnits="userSpaceOnUse" x="0" y="0" width="48" height="48">
<rect width="48" height="48" fill="#D9D9D9"/>
</mask>
<g mask="url(#mask0_3_13)">
<path d="M9.99997 44C8.89997 44 7.9583 43.6083 7.17497 42.825C6.39164 42.0416 5.99997 41.1 5.99997 40V17.45C5.39997 17.0833 4.91664 16.6083 4.54997 16.025C4.1833 15.4416 3.99997 14.7666 3.99997 14V7.99997C3.99997 6.89997 4.39164 5.9583 5.17497 5.17497C5.9583 4.39164 6.89997 3.99997 7.99997 3.99997H40C41.1 3.99997 42.0416 4.39164 42.825 5.17497C43.6083 5.9583 44 6.89997 44 7.99997V14C44 14.7666 43.8166 15.4416 43.45 16.025C43.0833 16.6083 42.6 17.0833 42 17.45V40C42 41.1 41.6083 42.0416 40.825 42.825C40.0416 43.6083 39.1 44 38 44H9.99997ZM9.99997 18V40H38V18H9.99997ZM7.99997 14H40V7.99997H7.99997V14ZM18 28H30V24H18V28Z" fill="black"/>
</g>
</svg>
