<svg width="48" height="48" viewBox="0 0 48 48" fill="none" xmlns="http://www.w3.org/2000/svg">
<mask id="mask0_6_13" style="mask-type:alpha" maskUnits="userSpaceOnUse" x="0" y="0" width="48" height="48">
<rect width="48" height="48" fill="#D9D9D9"/>
</mask>
<g mask="url(#mask0_6_13)">
<path d="M37 37.6V32H35V38.4L39.3 42.7L40.7 41.3L37 37.6ZM24 8L12.15 14.85L24 21.7L35.85 14.85L24 8ZM6 31.95V16.05C6 15.3167 6.175 14.65 6.525 14.05C6.875 13.45 7.36667 12.9667 8 12.6L22 4.55C22.3333 4.38333 22.6583 4.25 22.975 4.15C23.2917 4.05 23.6333 4 24 4C24.3667 4 24.7167 4.05 25.05 4.15C25.3833 4.25 25.7 4.38333 26 4.55L40 12.6C40.6333 12.9667 41.125 13.45 41.475 14.05C41.825 14.65 42 15.3167 42 16.05V24H38V18.2L23.95 26.3L10 18.2V31.9L22 38.85V43.45L8 35.4C7.36667 35.0333 6.875 34.55 6.525 33.95C6.175 33.35 6 32.6833 6 31.95ZM36 48C33.2333 48 30.875 47.025 28.925 45.075C26.975 43.125 26 40.7667 26 38C26 35.2333 26.975 32.875 28.925 30.925C30.875 28.975 33.2333 28 36 28C38.7667 28 41.125 28.975 43.075 30.925C45.025 32.875 46 35.2333 46 38C46 40.7667 45.025 43.125 43.075 45.075C41.125 47.025 38.7667 48 36 48Z" fill="#1C1B1F"/>
</g>
</svg>
