<svg width="48" height="48" viewBox="0 0 48 48" fill="none" xmlns="http://www.w3.org/2000/svg">
<mask id="mask0_30_56" style="mask-type:alpha" maskUnits="userSpaceOnUse" x="0" y="0" width="48" height="48">
<rect width="48" height="48" fill="#D9D9D9"/>
</mask>
<g mask="url(#mask0_30_56)">
<path d="M18.5 44L17.7 37.6C17.2667 37.4333 16.8584 37.2333 16.475 37C16.0917 36.7667 15.7167 36.5167 15.35 36.25L9.40002 38.75L3.90002 29.25L9.05002 25.35C9.01669 25.1167 9.00002 24.8917 9.00002 24.675V23.325C9.00002 23.1083 9.01669 22.8833 9.05002 22.65L3.90002 18.75L9.40002 9.25L15.35 11.75C15.7167 11.4833 16.1 11.2333 16.5 11C16.9 10.7667 17.3 10.5667 17.7 10.4L18.5 4H29.5L30.3 10.4C30.7334 10.5667 31.1417 10.7667 31.525 11C31.9084 11.2333 32.2834 11.4833 32.65 11.75L38.6 9.25L44.1 18.75L38.95 22.65C38.9834 22.8833 39 23.1083 39 23.325V24.675C39 24.8917 38.9667 25.1167 38.9 25.35L44.05 29.25L38.55 38.75L32.65 36.25C32.2834 36.5167 31.9 36.7667 31.5 37C31.1 37.2333 30.7 37.4333 30.3 37.6L29.5 44H18.5ZM22 40H25.95L26.65 34.7C27.6834 34.4333 28.6417 34.0417 29.525 33.525C30.4084 33.0083 31.2167 32.3833 31.95 31.65L36.9 33.7L38.85 30.3L34.55 27.05C34.7167 26.5833 34.8334 26.0917 34.9 25.575C34.9667 25.0583 35 24.5333 35 24C35 23.4667 34.9667 22.9417 34.9 22.425C34.8334 21.9083 34.7167 21.4167 34.55 20.95L38.85 17.7L36.9 14.3L31.95 16.4C31.2167 15.6333 30.4084 14.9917 29.525 14.475C28.6417 13.9583 27.6834 13.5667 26.65 13.3L26 8H22.05L21.35 13.3C20.3167 13.5667 19.3584 13.9583 18.475 14.475C17.5917 14.9917 16.7834 15.6167 16.05 16.35L11.1 14.3L9.15002 17.7L13.45 20.9C13.2834 21.4 13.1667 21.9 13.1 22.4C13.0334 22.9 13 23.4333 13 24C13 24.5333 13.0334 25.05 13.1 25.55C13.1667 26.05 13.2834 26.55 13.45 27.05L9.15002 30.3L11.1 33.7L16.05 31.6C16.7834 32.3667 17.5917 33.0083 18.475 33.525C19.3584 34.0417 20.3167 34.4333 21.35 34.7L22 40ZM24.1 31C26.0334 31 27.6834 30.3167 29.05 28.95C30.4167 27.5833 31.1 25.9333 31.1 24C31.1 22.0667 30.4167 20.4167 29.05 19.05C27.6834 17.6833 26.0334 17 24.1 17C22.1334 17 20.475 17.6833 19.125 19.05C17.775 20.4167 17.1 22.0667 17.1 24C17.1 25.9333 17.775 27.5833 19.125 28.95C20.475 30.3167 22.1334 31 24.1 31Z" fill="#1C1B1F"/>
</g>
</svg>
