<svg width="117" height="117" viewBox="0 0 117 117" fill="none" xmlns="http://www.w3.org/2000/svg">
<mask id="mask0_38_7" style="mask-type:alpha" maskUnits="userSpaceOnUse" x="0" y="0" width="117" height="117">
<rect width="117" height="117" fill="#D9D9D9"/>
</mask>
<g mask="url(#mask0_38_7)">
<path d="M20.7188 89.2125C17.6312 85.5563 15.1531 81.5344 13.2844 77.1469C11.4156 72.7594 10.2375 68.1688 9.75 63.375H19.7437C20.2312 66.8688 21.125 70.2203 22.425 73.4297C23.725 76.6391 25.4313 79.625 27.5438 82.3875L20.7188 89.2125ZM9.75 53.625C10.4 48.8313 11.6187 44.2407 13.4062 39.8531C15.1937 35.4656 17.6312 31.4438 20.7188 27.7875L27.5438 34.6125C25.4313 37.375 23.725 40.361 22.425 43.5703C21.125 46.7797 20.2312 50.1313 19.7437 53.625H9.75ZM53.3812 107.006C48.5875 106.519 44.0172 105.361 39.6703 103.533C35.3234 101.705 31.2812 99.2875 27.5438 96.2813L34.3688 89.2125C37.2125 91.325 40.2188 93.0719 43.3875 94.4532C46.5563 95.8344 49.8875 96.7688 53.3812 97.2563V107.006ZM34.6125 27.7875L27.5438 20.7188C31.3625 17.7125 35.4656 15.2953 39.8531 13.4672C44.2406 11.6391 48.8312 10.4813 53.625 9.99377V19.7438C50.1312 20.2313 46.7797 21.1656 43.5703 22.5469C40.3609 23.9281 37.375 25.675 34.6125 27.7875ZM63.1312 107.006V97.2563C66.7062 96.7688 70.0984 95.8547 73.3078 94.5141C76.5172 93.1735 79.5438 91.4063 82.3875 89.2125L89.4563 96.2813C85.6375 99.3688 81.5141 101.806 77.0859 103.594C72.6578 105.381 68.0062 106.519 63.1312 107.006ZM82.6312 27.7875C79.7875 25.675 76.7406 23.9281 73.4906 22.5469C70.2406 21.1656 66.8688 20.2313 63.375 19.7438V9.99377C68.1688 10.4813 72.7797 11.6391 77.2078 13.4672C81.6359 15.2953 85.7188 17.7125 89.4563 20.7188L82.6312 27.7875ZM96.2812 89.2125L89.4563 82.3875C91.5687 79.625 93.275 76.6391 94.575 73.4297C95.875 70.2203 96.7688 66.8688 97.2563 63.375H107.25C106.6 68.1688 105.381 72.7594 103.594 77.1469C101.806 81.5344 99.3688 85.5563 96.2812 89.2125ZM97.2563 53.625C96.7688 50.1313 95.875 46.7797 94.575 43.5703C93.275 40.361 91.5687 37.375 89.4563 34.6125L96.2812 27.7875C99.3688 31.4438 101.847 35.4656 103.716 39.8531C105.584 44.2407 106.762 48.8313 107.25 53.625H97.2563ZM53.7469 82.875V52.7719L41.0719 65.4469L34.2469 58.5L58.6219 34.125L82.9969 58.5L76.05 65.325L63.4969 52.7719V82.875H53.7469Z" fill="#6E6E6E"/>
</g>
</svg>
